<svg viewBox="0 0 216 234" xmlns="http://www.w3.org/2000/svg"><path d="M109 1a13 13 0 0 0-13 14 13 13 0 0 0 12 13L92 169 62 41a13 13 0 0 0 10-13 13 13 0 0 0-13-13 13 13 0 0 0-14 13 13 13 0 0 0 14 13 13 13 0 0 0 1 0l6 131-46-97a13 13 0 0 0 8-12 13 13 0 0 0-13-13A13 13 0 0 0 1 63a13 13 0 0 0 14 13 13 13 0 0 0 2 0l42 137s8 20 50 19c41 0 47-14 51-22l39-135a13 13 0 0 0 3 1 13 13 0 0 0 13-13 13 13 0 0 0-13-13 13 13 0 0 0-13 13 13 13 0 0 0 8 12l-45 98 6-132a13 13 0 0 0 1 0 13 13 0 0 0 13-13 13 13 0 0 0-13-13 13 13 0 0 0-13 13 13 13 0 0 0 10 13l-31 128-15-141a13 13 0 0 0 12-13 13 13 0 0 0-13-14zm166 113 18 5-18-5zm-166 86a45 10 0 0 1 45 10 45 10 0 0 1-45 10 45 10 0 0 1-45-10 45 10 0 0 1 45-10zm96 3-22 23 22-23z" fill="#a80"/><path d="M96.2 219.5a89 89 0 0 1-28-5.5c-5.1-2.5-5.3-5.2-.4-7.8 12.7-6.6 52.3-8.1 74.4-2.8 7.2 1.8 11.7 4.3 11.7 6.6 0 .9-1 2.1-2.4 3-4.6 3-16 5.5-30 6.5-5 .3-20.7.3-25.3 0z" fill="#a80"/><path d="M102.1 232a80 80 0 0 1-24.8-4.6c-7.7-3-13.7-7.3-17.1-12.4-1-1.6-.4.7-9.8-30.2l-8.6-28.2h16.8l3.7 7.7a35 35 0 0 0 3.7 7.4l-.7-14.6v-.6H89l1.5 6.2A398 398 0 0 0 92 169l.8-6.3.6-6v-.2h30.2l.7 6.2.7 6.3s0 .5 1.6-6.3l1.4-6v-.2h24.8v.7a3681.6 3681.6 0 0 0-.7 15.8l3.8-8.3 3.8-8.2h8l7.8.1-7.7 26.8L160 210l-.7 1.3a30.8 30.8 0 0 1-6.3 9c-7.4 7.2-20 11-38.6 11.6-2.8 0-10.4.1-12.3 0zm12.3-12c18.6-.6 33.5-3.5 38.2-7.5.5-.4 1-1 1.2-1.5.2-.3.2-.5.2-1 0-.6 0-.7-.2-1.1-3-6-29.6-10.1-56.3-8.6-14.6.8-26.5 3.3-31.3 6.6-.7.4-1.6 1.3-1.9 1.8-.6 1.2-.4 2.3.8 3.5 3.3 3.3 14 6 28.3 7.2 6.7.5 14.3.7 21 .6z" fill="#a80"/><path d="M103 232a72.2 72.2 0 0 1-29.8-6.3 32.8 32.8 0 0 1-13-10.7c-.9-1.3-1-1.8-1.7-3.9a16678 16678 0 0 0-8-25.8l-8.7-28.7a452.1 452.1 0 0 1 16.9 0l1.4 3a30097.9 30097.9 0 0 1 5.9 12l-.7-14.4v-.7H89l1.5 6.2L92 169l.8-6.3.6-6v-.2h30.2l.7 6.2a252.5 252.5 0 0 0 .7 6.3l3-12.2v-.3h24.8v.7a3441.7 3441.7 0 0 0-.6 15.6l6.7-14.6.8-1.7h7.9l7.9.1-7.7 26.8L160 210l-.7 1.3a30.5 30.5 0 0 1-6.5 9.2 31.7 31.7 0 0 1-8.5 5.7 78.1 78.1 0 0 1-29.9 5.7H103zm11.4-12c20.4-.6 36.2-4 39.2-8.6 1.2-1.8 0-3.8-3.5-5.5-9.7-4.9-35-7.2-57.3-5.3-14.1 1.3-24.5 4-27.8 7.2-1.4 1.5-1.4 3 0 4.4 3.7 3.6 15.6 6.4 31.7 7.4a271.6 271.6 0 0 0 17.7.4z" fill="#a80"/><path d="M102.2 232a65.2 65.2 0 0 1-33.6-9c-4-2.6-7.5-6-9.2-9.3a170.5 170.5 0 0 1-6-19 59077.5 59077.5 0 0 1-11.6-38.1h16.8l.5.8a3894.7 3894.7 0 0 0 6.9 14.2l-.7-14.4v-.7h23.8l1.2 5.2c1.8 7.9 1.7 7.4 1.7 7a446.1 446.1 0 0 0 1.4-12v-.2h30.2l.7 6.2a4858.9 4858.9 0 0 1 .7 6.3 408.2 408.2 0 0 0 3-12.2v-.3h24.8v.7a1430.7 1430.7 0 0 0-.6 15.7l7-15.1.5-1.3h15.8a24220.1 24220.1 0 0 1-14.7 51l-.7 2.5-.7 1.4c-2 4-3.8 6.5-6.3 8.9-7.1 7-19 10.7-36.7 11.5a363.4 363.4 0 0 1-14.1.1zm12.1-12a109 109 0 0 0 35-5.5c4.7-2 6-4.5 3.5-6.8a25.6 25.6 0 0 0-10.7-4.5c-13.8-3.3-36-4.2-54-2-13.3 1.5-22.2 4.4-23.8 7.7-.6 1.1-.3 2.2.8 3.3 4.1 4.1 19.3 7.2 38.3 7.8h11z" fill="#a80"/><path d="M102 232a65.8 65.8 0 0 1-33-8.6 28.5 28.5 0 0 1-9.6-9.7c-.3-.6-.4-.8-5-15.8a82554.2 82554.2 0 0 0-12.6-41.2v-.2h16.8l1.7 3.6c3.7 7.9 5.5 11.5 5.6 11.6a8407.7 8407.7 0 0 1-.6-14.5v-.7H89l.5 1.8 1.4 6c1 4.7 1 4.6 1.1 4.6l.7-6.2.7-6.1h30.2l.2 1a7373.8 7373.8 0 0 1 1.2 11.2v.2l.2-.6 2.8-11.8h24.7v.6a1190.6 1190.6 0 0 0-.7 15.7l1.3-2.6 5-10.8 1.3-3h15.8l-.4 1.4a42594.6 42594.6 0 0 0-13.8 48l-1.2 4-.7 1.5c-2 4-3.8 6.5-6.3 8.9-7.1 7-19 10.7-36.7 11.5-3.4.2-11.2.2-14.3.1zm12.1-12c17.5-.5 31.9-3 37.5-6.7 2.7-1.8 3.1-3.7 1.3-5.5-3.3-3.3-14-6-28.2-7.2a171 171 0 0 0-48.8 2.6c-4.2 1-7.6 2.3-9.5 3.6-.8.5-1.9 1.6-2.1 2-.8 1.6 0 3 2.1 4.4 6.7 4.5 27 7.3 47.7 6.8z" fill="#a80"/><path d="m58.5 200.4.2.3.1 1.9v.5c0 1 .2 2 .4 2.9l.4 2v3.1l-.1.5 12.9 6.6-.1-.6v-2.4l-.3-1.5-.2-1v-.6l-.4-2.7c0-.6 0-1.5.2-2l.2-.2-13.3-6.8z" fill="#a80"/><path d="M59.6 201.3a13.4 13.4 0 0 1 .6 2.5l.1.9v2.9l-.2 1.1v1l.2.8.2.4.1.2.3.6.4 1 .3.5c3.7 3.7.4.4 12.9 7.5l.3.2h.5l1 .2a9 9 0 0 0 3.5-.2l.8-.3c.3 0 .5-.2.8-.3.3 0 .5-.2.8-.3l.7-.3 1.4-.9.4-.3s.4-.3.3-.4a206 206 0 0 0-12.6-8l-1 1.2-.5.7h-.2v-.5c18.7 9.5 16.7 8.6 12 6.6l-.3-.3-.8-.8c-.2 0-.3-.2-.5-.3l-1-.8-.5-.6a8.2 8.2 0 0 1-2-4.2v-.9c0-.6.1-1.2.5-1.7.3-.4.2-.2.5-.4l.4-.3c-32.3-18.5-9.5-10.8-13.5-6.5-.2.3-.6.6-1 .8-3.3 4.4-.9.9 12.3 8.3.2.1.3-.3.4-.5l.8-.4c1-.6 1.5-.7 2.6-1.1l1.7-.5a40.2 40.2 0 0 1 6.7-1l1.3-.1c1.6-.2 3.2-.1 4.9 0h.4l.3.2c-4-2.9-8-5.8-12.2-8.6v.2l-.6.5-1 .6c-1.4.2-1.9.4-3.3.3-4.1-.6-20-11 10 7.8.3.2.2-.6.4-.8.4-.3.9-.4 1.3-.6l2-.5a33.8 33.8 0 0 1 9.9 0l1.5.2c5.3 2.1 4.5 2-11.2-8-.2 0-.3.4-.5.5l-1 .2c-1 .1-1.1 0-2-.3 3.9 2.8 7.7 5.8 11.8 8.4.1.1.1-.5.3-.6.3-.3.7-.4 1-.5 1-.3 2.6-.4 3.7-.4l1.8.3c.4.2 1.5.8 1.2.5-4-2.8-7.8-5.7-12-8-.4-.3-.5.6-1 .8-.6.3-1.3.4-2 .5-2.7.2-3-.1-5.4-1 3.7 2.3 7.3 4.5 11 6.6.1 0-.2-.3-.1-.4l1.4-1c1.5-.6 3.7-1 5.2-1.1l3-.1c2.7 0 5.4.2 8 .7l1.5.4h.5c2.7-.1-1.7 0 1.8-.2.9 0 1.8 0 2.7.2l1.2.4 1 .5L114 197v.3c-.7.5-1.6.7-2.5.7h-1.3c-.4 0-1.4-.3-1 0 3.9 2.7 8 5.5 12.2 7.9.3.2.5-.5.8-.7l1.8-.5c1.9-.5 3-.4 5-.5 2 0 3 0 4.9.4.5.2 2 1 1.5.6-3.8-2.7-7.5-5.7-11.7-7.7-.6-.3-.7 1.2-1.2 1.6-1 .6-2.3.7-3.4 1.1l-4.5.4a54.2 54.2 0 0 1-11.7-1.2c-.7-.2-2.4-1.3-1.8-1l12 7.5c.5-.4 1-1 1.6-1.2a24 24 0 0 1 6.6-1c2.3 0 4.5 0 6.8.2l2.6.2 3.6.5 2.1.4 1.7.2 2 .1h1l.4.2c.3 0 .3 0 .5.2v.1l.1.2h.3l.7-.2a5 5 0 0 1 2.1.2l.8.2c.7.3 1.3.9 2.1 1 .4.2.9.2 1.2.2a9 9 0 0 1 2.3.3l.5.1c.3 0 .5.2.8.3l.2.2h.4l1 .2c.2 0 .4 0 .6.2l.2.1.5.3.2.2.3.1-12.4-7.1h.5v1.2l-.1.4-.3 1v.4l-.1.4a5 5 0 0 1-.8 1.8s-.2.3-.3.2v-.2c-.3 0-.4.2-.6.3l-.3.1-.2-.2 12.4 6.7h-.5c-.3-.2-.4-.7-.5-1-.2-.9 0-1.7 0-2.6.2-.5.3-1.3.3-1.8a7.3 7.3 0 0 0-.7-3.2l-.6-.9c-3.8-3.9-2-2.2-12.7-7.5-.3-.2-.8.1-1.1.2-.8.3-1.7 1-2.3 1.5l-1.1.8-1 .7-1.3 1c-.2.2-.6.5-.4.6 12 8 8.4 10 13 7.3l.6-.2.5-.2c4.5-1.7-7.8-5.9-12-8.3-.2-.2-.2.5-.4.7l-.8.5c-.4 0-.7.2-1.1.3a4 4 0 0 1-1.9-.1c-.2 0-.7-.5-.5-.4 8.9 4.9 15.7 8.9 11 6-3.1 2.2-8.2-7.2-13.2-7l-2.7.3-2.9.1c-5.4-1.8-.3-.1 11.3 6.5h-.3c-.5-.7.3-1.2-.7-1.8-4-2.5-8-4.6-12.1-7l-4.7.6c-.5.1-1 0-1.3.3-.3.2-1 .7-.7 1 3.9 2.7 8.3 4.8 12.4 7.3l1-.5 1.7-.5 3.9-.9 1.7-.3 1.4-.3c-4-2.7-7.8-5.6-11.9-8-.3-.2-.6.4-1 .5-.4.2-.9.2-1.4.3l-3 .4h-1.2c-4.4 4.5-2.6 1.9 12 7.3.4.1.7-.7 1-.9l1.7-.7c1.4-.5 2.2-.5 3.6-.8l1.5-.1h1.3l2.8.2 4.5.4 6 .8c.6 0 1.7.2 2.3.1l.7-.1.6-.3c.4-.3.6-.7.8-1l.4-.6c.2-.2.4-.5.7-.6h.3c0 .2 0 .8-.2.6-4.1-2.2-8-4.8-12-7.3l.2 1.2-.1 1.3c-.2 1-.7 2-1.2 3l-.4.7c-.6 1.1-1.4 2.1-2.2 3.1 0 .2-.2.3-.3.5l-.2.4-.8 1.9-.4 2c0 .3-.2.5-.3.8 0 .1-.2.3-.1.4 12.7 7.8 9.7 11.1 13.2 7l.2-.2.6-.3c.1-.1.5-.3.3-.4-12.7-8.3-10.4-12.1-13-7.4l-.2.3c-.7.5-1.5.7-2.3.9h-.6l-.4.2-.5.2-1.3.3c-.3 0-.9.2-1.2 0h-.3l12.4 8.1c0-.2.2-.2.3-.3l.6-.2 1.3-.3c.4-.1.8-.2 1.2-.5l.6-.3c.7-.5 1.6-1 2.4-1.2l.6-.2.4-.1 1-.4s.2 0 .3-.2l.4-.6c-22.5-14.4-8.6-10.3-13.9-6.7l-.3.2-1.5.7-1 .4-2 .7-.6.1-.2.2-.2.1-.4.3-.1.1h-.2l-.1.2h-.2l-.1.1-.5.5h-.2c-.2.3-.5.4-.8.5l-.4.2-1 .3-1.1.3-1.8.2-1.3.1h-.6l-1.7.2-2.5.1h-3.6l-.4-.1h-.9l-2.6-.1h-4.3l-.6.2h-1.6l-4.8.1h-5.5c-.8.2-1.5.2-2.3.2h-4.2l-4-.3h-2.7l-1.2-.1H82l-.7-.1h-3l-.7-.1-.2-.1 12.1 8.6h.2l.3-.1.4-.2 1.6-.2c1.5-.2 3-.2 4.6-.2h7.7l2.7.2 6.5.1h3.3l3.8-.1h1.2l1.3-.1 3.6-.2 1-.1c1.4-.2 2.7-.2 4-.5.6 0 1-.1 1.6-.3l1.6-.3.8-.1 2-.2c.9 0 1.7 0 2.5-.2l.3-.1.7-.1.4-.1 1-.2 1.1-.2.4-.1.7-.3a4 4 0 0 0 1.3-.7l.6-.5 1.1-.8.5-.5 1.1-1 .5-.5c.3-.3.4-.7.6-1l.2-.3c0-.1.4-.3.2-.4-4.2-2.6-8.7-4.9-13-7.3a6 6 0 0 1-1 1.6l-.7.7-2.5 1.8c-2 .9-2.9 1.4-5 2a68.2 68.2 0 0 1-10.4 1.2h-3.2a51.4 51.4 0 0 1-12.5-1l-1.8-.6c-1.5-.5-1.6-.5-3-1.3l-1.1-.7 9.9 8 .7.2c1.3.4 1.2.4 2.5.6l1.6.3h3.5c2.4 0 4.8-.3 7.1-.6l2.7-.4 6.4-1c4.4-.6 3-.4 7.6-.7l3.3-.3c2.3-.2 2.7-.2 4.7-.7.4 0 1.8-.5 2.3-.6l.7-.2.4.1c-4.3-2.4-8.6-4.7-12.7-7.3-.2 0 .2-.2.3-.3l.1.2-.2.6-1.4 1.3-.6.4-1 .8c-.5.4-1 .7-1.7.9l-.6.2-1.4.3-.8.1h-.5l-1.2.2-.6.1-1.4.4-1.7.5-.7.2-.8.2-.8.1c-1.7.4-3.3.8-5 1l-3.2.4-1.1.1h-2.5l-1.2.1h-3.9l-1.1-.1H101c-1.4-.1-2.8-.2-4.2-.1a6886 6886 0 0 1-3.5.1H89c-2.6-.1-5.1 0-7.6-.3-1 0-1.3 0-2.2-.2l-.9-.1h-.6l-.4-.1c3.9 3 7.9 5.8 11.8 8.7v-.1h.5l1-.1h2.1l2.2-.1h3.6l4 .1h4.1l2.3-.1h1.6l.6.1c1.1 0 2.3 0 3.4-.2h.7l3.7-.2h1.8l1 .1 1.7.1h2.8l2.6.2 2.6.1h5.6l1.4-.2h.9l1-.2 1.9-.2.6-.1h.2l.7-.3h.3l.7-.5.6-.3.3-.3.2-.1 1.1-.7.9-.4.3-.2.4-.2c.5-.4 1-.8 1.6-1l.5-.2c.7-.3.3 0 1-.4.3 0 .5-.2.7-.3l.4-.2c.4-.2.8-.4 1.2-.4h.3l.1.1-12.7-7.6.4-.6v.1l-.5.5c-.2.2-.3.4-.6.5a9 9 0 0 1-2.3 1.3l-1.7.5-1.2.3-.7.2h-1.6c4 3 8.2 5.6 12.2 8.4v-.2c.1-.2.6-.3.7-.4.6-.2.6-.2 1.3-.2h1.4l.8-.4c.4-.2.2 0 .6-.4a5 5 0 0 1 2-.8c5.3 1.1-.5 0-12.1-7.7-.6-.4.5-.4.3-.2-.1.1-.2 0-.4 0-2.1-4.6-.4-.7 12.5 7.2.1 0-.1.2-.3.2l-.2-.3v-.3l.2-2v-.4l.8-2c.6-1.3 1.4-2.5 1.7-3.8l.4-2 .2-1c.2-.7.5-1.7 1-2.3.1-.3.4-.5.7-.8-13.2-9.2-9.3-12.3-12.4-7.7l-.2.3-.8.9-.3.3-.1.3a7 7 0 0 1-.6.8l-.7.4c-.9.5-2 .7-3 .7h-1.8c-2.5-.3-2.2-.2-4.8-.8a31 31 0 0 0-4.6-1c-.7-.1-1.6.4-2.2.7l-1.3.6c-1.2.5-2.5.9-3.8 1-.7 0-2.8-.5-2.2 0 10.5 7.6 14.7 3.8 9.7 7.5.2-.7 0-.6 1-.9 1-.3 2.2-.3 3.1-.2 4 .9 14.6 9.7-8.6-6.6.2.2.7.4.6.7-.1.4-.6.5-1 .7l-1.6.5a12 12 0 0 1-4.2.2c-.7-.1-1.4-.4-2-.6 3.5 2.3 7.2 4.4 10.6 6.8.3.2-.6.3-.8.1-.2 0 0-.4 0-.6l1-.4c1.5-.3 2 .1 3.4.5l-9.8-6c.1.1.3.1.3.3.2.3-.7.9-.4 1 12.5 8.2 12 12 12.6 6.7l.7-.3c1.5-.5 3-.3 4.3.2l1.2.6-10.5-6c3.5 3.9 1 1 12.9 7.4l.4-.2c.2 0 .4-.2.5-.3 1-.5.7-.3 1.8-.7l1.3-.1c.4 0 1.5.5 1.2.3-3.8-2.9-7.9-5.4-11.8-8.2h.2c0 .2-.6 0-.6.1-4.2-2.8-.5-.3 11.5 7.1.2.1-.3.2-.5.1-.4-.2 0-1 0-1.1l.5-.8.9-.8c.7-.4 1.4-.6 2.3-.6.3 0 1.3.4 1 .2l-9.2-5.4c.6.5.8.6 1.2 1.4.5 1 .3 2.2.1 3.4l-.4 1.7c-.2 1-.6 1.8-.6 2.8 4.3 2.4 8.5 4.8 12.9 7l.4-.2 1-.1.2-.1c.4-.3.5-.7.7-1l.1-.7.4-1.6.2-.4.2-.2v-.3l.4-.7.2-.3c0-.2 0-.4.2-.6v-.2l.1-.3v-1.8c-7.6-4.6-8.4-5.5-13.1-7.6l-.6-.2-1.1-.1c-.3 0-.5-.2-.8-.3l-.5-.2h-.2l-.8.2c-.7 0-1.3 0-1.9-.2l-.7-.3-1.2-.6-1.5-.4c-1.3-.1-2.7-.2-4-.8l-.4-.2-.3-.3h-.2l-.4.3a13.7 13.7 0 0 1-2.5.3h-.7c-.6 0-1.1-.1-1.6 0h-.9l-2 .8a38.2 38.2 0 0 1-14.4 1.7l-4.2-.7 9 7.6c.3.3-1-.6-1-1 0-.5.5-.7.9-1l2.3-.8c3.2-.8 4.8-.7 8.3-.8 2 .2 3.9.3 5.8.6 1.7.3 6.2 2.8 5.2 1.3-2.4-3.4-6.5-5.1-9.8-7.7.1.2.4.4.3.6-.4.7-2.8.9-3 1l-2.7.1c-1.8 0-4-.1-6-.5-.7-.1-3-1.2-2.3-.6 3.4 3 14.8 10.6 10.1 7.4l.6-.4c1.2-.5 2-.3 3.2-.5.7 0 2.6 0 2-.4-10.1-8.8-7.4-10.1-11.9-7.8l-.8.1c-1 0-1.8-.1-2.8-.3l-2.7-.6-.8-.2-.6.1-1 .5-2.2.9-1.8.5-2.5.5c-2 .2-4.6.3-6.6.3-1 0-2-.2-3.2-.1-1 0-3.6-.3-2.8.3 3.2 3 7.3 4.7 11 7 .2-.2.4-.5.7-.6a21 21 0 0 1 6.1.5c1 .2 4 1.6 3.2.8-17.7-17.6-12.7-11-10-7.4-1.1.7-.7.6-2.5.6-1.4 0-3-.1-4.5-.4-5.1-1.1-10.2-6.8 9.7 7.8v-.3c.5-.3 2-.2 2.3-.1.4 0 1.7.6 1.4.3-14.7-12-14.3-11.6-10.9-7.9l-.3.5a9 9 0 0 1-2.9 1c-2.7.4-5.4.4-8.2.1l-2.7-.4c-.8-.2-2.7-1.2-2.1-.7 3.5 3 7.4 5.5 11.1 8.2v-.6c.7-.4 2.8-.3 3.3-.3 2.4.2 1.7 0 3.6.4.3 0 1 .3.8.1-3.9-3-8-5.7-12-8.5l-.2.2-1.4.3-1.3.5-1 .2-2.1.7-2.9 1-3.6.7-3.8.2-1.4-.1c-.4-.1-1.2-.6-1-.4 12 7.9 16.4 5.6 11.8 7.9 0-.3 0-.3.2-.5l.7-.5h.4l-12.7-7.4c.1 0 .3-.3.4-.2.1 0 0 .2 0 .4v3.2c.2.3.2.7.3 1l.6 2.4c.2 1 .1 1 .4 1.9l.3.7.3.5.7.7 1 .9c1.5 5 .2 1 13 7.4.2.1.5-.6.6-.7l.1-.3.2-.2c.1 0 .4-.2.6 0v.3c-4.2-2.5-8.3-5.1-12.4-7.8l.3-.2.1.1-.1.3c-.2.4-.6.7-1 1a4 4 0 0 1-.6.3c-.2 0-.5 0-.7.2l-1.6.1c-1 0-1.9-.2-2.8-.5l-1-.4-.6-.3-.4-.3c12.2 7 16.4 8.5 11.8 7l-.4-.2-.3-.3-.2-.4-.3-.6-.1-.3-.2-.4c-.3-.5 0 .2-.3-.4l-.6-1.2c-.1-.5-.3-.7-.3-1.2l-.1-.6v-2.3c0-.8 0-.7.2-1.4 0-.4.2-.8.4-1.1v-.2l-13.3-6.8z" fill="#a80"/><path d="m76.7 214.5-.3.6-.6.4c12.8 8 10.4 12 13.1 7.4.2-.2.4-.4.6-.4h.3l.2-.2c.8-.6 1.7-.8 2.5-1h.4l.6-.1h.5c.2 0 .4-.2.5-.3l-11.3-8-1-.2c-.6 0-1.1.2-1.7.5a81 81 0 0 1-2.6 1l-.6.1-.2.2-.6.5c-5.2.1.1 0 12.5 7.8h-.3v-.1l.4-.2.2-.1-12.6-7.9z" fill="#a80"/><path d="M29 73.4 8.8 80.8l-13.3-17 12-17.9 20.8 6Zm42.3-32.6-21.6 2.8L40.4 24 56 9l19.2 10.4Zm48.9-11.1-21.3.2-6.8-20.1 17-12.8 17.4 12.3ZM167 43.5l-20.3-3.4-3-20.3 18.3-9.1 14.4 14.6ZM207.3 80l-19.8-7.7L189 51l20.6-5.3 11.4 18Z" fill="#c83737"/></svg>