<svg viewBox="0 0 216 234" xmlns="http://www.w3.org/2000/svg"><path d="M109 1a13 13 0 0 0-13 14 13 13 0 0 0 12 13L92 169 62 41a13 13 0 0 0 10-13 13 13 0 0 0-13-13 13 13 0 0 0-14 13 13 13 0 0 0 14 13 13 13 0 0 0 1 0l6 131-46-97a13 13 0 0 0 8-12 13 13 0 0 0-13-13A13 13 0 0 0 1 63a13 13 0 0 0 14 13 13 13 0 0 0 2 0l42 137s8 20 50 19c41 0 47-14 51-22l39-135a13 13 0 0 0 3 1 13 13 0 0 0 13-13 13 13 0 0 0-13-13 13 13 0 0 0-13 13 13 13 0 0 0 8 12l-45 98 6-132a13 13 0 0 0 1 0 13 13 0 0 0 13-13 13 13 0 0 0-13-13 13 13 0 0 0-13 13 13 13 0 0 0 10 13l-31 128-15-141a13 13 0 0 0 12-13 13 13 0 0 0-13-14zm166 113 18 5-18-5zm-166 86a45 10 0 0 1 45 10 45 10 0 0 1-45 10 45 10 0 0 1-45-10 45 10 0 0 1 45-10zm96 3-22 23 22-23z" fill="#a80"/></svg>